<svg width="111" height="30" viewBox="0 0 111 30" fill="none" xmlns="http://www.w3.org/2000/svg">
<path d="M0.28 29V0.999998H7C11.5067 0.999998 14.8533 2.25333 17.04 4.76C19.2267 7.24 20.32 10.6533 20.32 15C20.32 19.3467 19.2267 22.7733 17.04 25.28C14.8533 27.76 11.5067 29 7 29H0.28ZM4.52 25.08H6.84C10.0933 25.08 12.44 24.1733 13.88 22.36C15.32 20.52 16.04 18.0667 16.04 15C16.04 11.9333 15.32 9.49333 13.88 7.68C12.44 5.84 10.0933 4.92 6.84 4.92H4.52V25.08ZM29.3044 29L37.6644 0.999998H42.7044L51.0644 29H46.4644L44.5844 22.28H35.7844L33.9044 29H29.3044ZM40.0644 7L36.7444 18.88H43.6244L40.3044 7H40.0644ZM62.1688 29V25.24H68.2488V4.76H62.2488V0.999998H78.4888V4.76H72.4888V25.24H78.5688V29H62.1688ZM100.193 29.48C98.1131 29.48 96.2865 28.8933 94.7131 27.72C93.1398 26.52 91.9131 24.84 91.0331 22.68C90.1531 20.52 89.7131 17.96 89.7131 15C89.7131 12.0933 90.1531 9.56 91.0331 7.4C91.9131 5.24 93.1665 3.56 94.7931 2.36C96.4465 1.13333 98.4198 0.52 100.713 0.52C103.486 0.52 105.713 1.28 107.393 2.8C109.1 4.32 110.14 6.46667 110.513 9.24H105.913C105.646 7.8 105.06 6.65333 104.153 5.8C103.273 4.94666 102.126 4.52 100.713 4.52C98.5531 4.52 96.8998 5.45333 95.7531 7.32C94.6065 9.18667 94.0331 11.7467 94.0331 15C94.0331 18.3867 94.6331 20.9867 95.8331 22.8C97.0598 24.5867 98.6465 25.48 100.593 25.48C101.9 25.48 102.98 25.0933 103.833 24.32C104.686 23.5467 105.34 22.56 105.793 21.36C106.246 20.1333 106.526 18.84 106.633 17.48H100.753V13.96H110.913V29H106.993L106.713 25.24H106.473C105.94 26.4667 105.193 27.48 104.233 28.28C103.273 29.08 101.926 29.48 100.193 29.48Z" fill="white"/>
</svg>
