<svg width="560" height="49" viewBox="0 0 560 49" fill="none" xmlns="http://www.w3.org/2000/svg">
<path d="M0.318182 1.45454H11.3409L21.9545 21.5H22.4091L33.0227 1.45454H44.0455L27.0682 31.5455V48H17.2955V31.5455L0.318182 1.45454ZM89.3807 24.7273C89.3807 29.803 88.4186 34.1212 86.4943 37.6818C84.5852 41.2424 81.9792 43.9621 78.6761 45.8409C75.3883 47.7045 71.6913 48.6364 67.5852 48.6364C63.4489 48.6364 59.7367 47.697 56.4489 45.8182C53.161 43.9394 50.5625 41.2197 48.6534 37.6591C46.7443 34.0985 45.7898 29.7879 45.7898 24.7273C45.7898 19.6515 46.7443 15.3333 48.6534 11.7727C50.5625 8.21212 53.161 5.5 56.4489 3.63636C59.7367 1.75757 63.4489 0.81818 67.5852 0.81818C71.6913 0.81818 75.3883 1.75757 78.6761 3.63636C81.9792 5.5 84.5852 8.21212 86.4943 11.7727C88.4186 15.3333 89.3807 19.6515 89.3807 24.7273ZM79.4034 24.7273C79.4034 21.4394 78.911 18.6667 77.9261 16.4091C76.9564 14.1515 75.5852 12.4394 73.8125 11.2727C72.0398 10.1061 69.964 9.52273 67.5852 9.52273C65.2064 9.52273 63.1307 10.1061 61.358 11.2727C59.5852 12.4394 58.2064 14.1515 57.2216 16.4091C56.2519 18.6667 55.767 21.4394 55.767 24.7273C55.767 28.0152 56.2519 30.7879 57.2216 33.0455C58.2064 35.303 59.5852 37.0152 61.358 38.1818C63.1307 39.3485 65.2064 39.9318 67.5852 39.9318C69.964 39.9318 72.0398 39.3485 73.8125 38.1818C75.5852 37.0152 76.9564 35.303 77.9261 33.0455C78.911 30.7879 79.4034 28.0152 79.4034 24.7273ZM125.42 1.45454H135.261V31.6818C135.261 35.0758 134.451 38.0455 132.83 40.5909C131.223 43.1364 128.973 45.1212 126.08 46.5455C123.186 47.9545 119.814 48.6591 115.966 48.6591C112.102 48.6591 108.723 47.9545 105.83 46.5455C102.936 45.1212 100.686 43.1364 99.0795 40.5909C97.4735 38.0455 96.6705 35.0758 96.6705 31.6818V1.45454H106.511V30.8409C106.511 32.6136 106.898 34.1894 107.67 35.5682C108.458 36.947 109.564 38.0303 110.989 38.8182C112.413 39.6061 114.072 40 115.966 40C117.875 40 119.534 39.6061 120.943 38.8182C122.367 38.0303 123.466 36.947 124.239 35.5682C125.027 34.1894 125.42 32.6136 125.42 30.8409V1.45454ZM199.239 17.75H189.284C189.102 16.4621 188.731 15.3182 188.17 14.3182C187.61 13.303 186.89 12.4394 186.011 11.7273C185.133 11.0151 184.117 10.4697 182.966 10.0909C181.83 9.71212 180.595 9.52273 179.261 9.52273C176.852 9.52273 174.754 10.1212 172.966 11.3182C171.178 12.5 169.792 14.2273 168.807 16.5C167.822 18.7576 167.33 21.5 167.33 24.7273C167.33 28.0455 167.822 30.8333 168.807 33.0909C169.807 35.3485 171.201 37.053 172.989 38.2045C174.777 39.3561 176.845 39.9318 179.193 39.9318C180.511 39.9318 181.731 39.7576 182.852 39.4091C183.989 39.0606 184.996 38.553 185.875 37.8864C186.754 37.2045 187.481 36.3788 188.057 35.4091C188.648 34.4394 189.057 33.3333 189.284 32.0909L199.239 32.1364C198.981 34.2727 198.337 36.3333 197.307 38.3182C196.292 40.2879 194.92 42.053 193.193 43.6136C191.481 45.1591 189.436 46.3864 187.057 47.2955C184.693 48.1894 182.019 48.6364 179.034 48.6364C174.883 48.6364 171.17 47.697 167.898 45.8182C164.64 43.9394 162.064 41.2197 160.17 37.6591C158.292 34.0985 157.352 29.7879 157.352 24.7273C157.352 19.6515 158.307 15.3333 160.216 11.7727C162.125 8.21212 164.716 5.5 167.989 3.63636C171.261 1.75757 174.943 0.81818 179.034 0.81818C181.731 0.81818 184.231 1.19697 186.534 1.95454C188.852 2.71212 190.905 3.81818 192.693 5.27272C194.481 6.71212 195.936 8.47727 197.057 10.5682C198.193 12.6591 198.92 15.053 199.239 17.75ZM213.443 48H202.898L218.966 1.45454H231.648L247.693 48H237.148L225.489 12.0909H225.125L213.443 48ZM212.784 29.7045H237.693V37.3864H212.784V29.7045ZM292.227 1.45454V48H283.727L263.477 18.7045H263.136V48H253.295V1.45454H261.932L282.023 30.7273H282.432V1.45454H292.227ZM315.17 48V1.45454H333.807C337.231 1.45454 340.087 1.96212 342.375 2.97727C344.663 3.99242 346.383 5.40151 347.534 7.20454C348.686 8.99242 349.261 11.053 349.261 13.3864C349.261 15.2045 348.898 16.803 348.17 18.1818C347.443 19.5455 346.443 20.6667 345.17 21.5455C343.913 22.4091 342.473 23.0227 340.852 23.3864V23.8409C342.625 23.9167 344.284 24.4167 345.83 25.3409C347.39 26.2652 348.655 27.5606 349.625 29.2273C350.595 30.8788 351.08 32.8485 351.08 35.1364C351.08 37.6061 350.466 39.8106 349.239 41.75C348.027 43.6742 346.231 45.197 343.852 46.3182C341.473 47.4394 338.542 48 335.057 48H315.17ZM325.011 39.9545H333.034C335.777 39.9545 337.777 39.4318 339.034 38.3864C340.292 37.3258 340.92 35.9167 340.92 34.1591C340.92 32.8712 340.61 31.7348 339.989 30.75C339.367 29.7652 338.481 28.9924 337.33 28.4318C336.193 27.8712 334.837 27.5909 333.261 27.5909H325.011V39.9545ZM325.011 20.9318H332.307C333.655 20.9318 334.852 20.697 335.898 20.2273C336.958 19.7424 337.792 19.0606 338.398 18.1818C339.019 17.303 339.33 16.25 339.33 15.0227C339.33 13.3409 338.731 11.9848 337.534 10.9545C336.352 9.92424 334.67 9.40909 332.489 9.40909H325.011V20.9318ZM357.483 48V1.45454H388.847V9.56818H367.324V20.6591H387.233V28.7727H367.324V39.8864H388.938V48H357.483ZM454.256 24.7273C454.256 29.803 453.294 34.1212 451.369 37.6818C449.46 41.2424 446.854 43.9621 443.551 45.8409C440.263 47.7045 436.566 48.6364 432.46 48.6364C428.324 48.6364 424.612 47.697 421.324 45.8182C418.036 43.9394 415.438 41.2197 413.528 37.6591C411.619 34.0985 410.665 29.7879 410.665 24.7273C410.665 19.6515 411.619 15.3333 413.528 11.7727C415.438 8.21212 418.036 5.5 421.324 3.63636C424.612 1.75757 428.324 0.81818 432.46 0.81818C436.566 0.81818 440.263 1.75757 443.551 3.63636C446.854 5.5 449.46 8.21212 451.369 11.7727C453.294 15.3333 454.256 19.6515 454.256 24.7273ZM444.278 24.7273C444.278 21.4394 443.786 18.6667 442.801 16.4091C441.831 14.1515 440.46 12.4394 438.688 11.2727C436.915 10.1061 434.839 9.52273 432.46 9.52273C430.081 9.52273 428.006 10.1061 426.233 11.2727C424.46 12.4394 423.081 14.1515 422.097 16.4091C421.127 18.6667 420.642 21.4394 420.642 24.7273C420.642 28.0152 421.127 30.7879 422.097 33.0455C423.081 35.303 424.46 37.0152 426.233 38.1818C428.006 39.3485 430.081 39.9318 432.46 39.9318C434.839 39.9318 436.915 39.3485 438.688 38.1818C440.46 37.0152 441.831 35.303 442.801 33.0455C443.786 30.7879 444.278 28.0152 444.278 24.7273ZM500.477 1.45454V48H491.977L471.727 18.7045H471.386V48H461.545V1.45454H470.182L490.273 30.7273H490.682V1.45454H500.477ZM508.608 48V1.45454H539.972V9.56818H518.449V20.6591H538.358V28.7727H518.449V39.8864H540.062V48H508.608ZM559.182 1.45454L558.295 34.0455H549.977L549.068 1.45454H559.182ZM554.136 48.5909C552.636 48.5909 551.348 48.0606 550.273 47C549.197 45.9242 548.667 44.6364 548.682 43.1364C548.667 41.6515 549.197 40.3788 550.273 39.3182C551.348 38.2576 552.636 37.7273 554.136 37.7273C555.576 37.7273 556.841 38.2576 557.932 39.3182C559.023 40.3788 559.576 41.6515 559.591 43.1364C559.576 44.1364 559.311 45.053 558.795 45.8864C558.295 46.7045 557.636 47.3636 556.818 47.8636C556 48.3485 555.106 48.5909 554.136 48.5909Z" fill="url(#paint0_linear_138_552)"/>
<defs>
<linearGradient id="paint0_linear_138_552" x1="282" y1="-14" x2="238.5" y2="48" gradientUnits="userSpaceOnUse">
<stop stop-color="white"/>
<stop offset="1" stop-color="white" stop-opacity="0.21"/>
</linearGradient>
</defs>
</svg>
